<svg width="54" height="61" viewBox="0 0 54 61" fill="none" xmlns="http://www.w3.org/2000/svg">
<path d="M26.7969 7.15241e-05H26.3074L24.8907 0.104244C24.124 0.150305 23.3617 0.251267 22.6094 0.406336C22.1222 0.474749 21.6389 0.568616 21.1615 0.687574L19.547 1.1355C16.7989 1.9786 14.206 3.26269 11.8699 4.93757C8.7833 7.17796 6.20597 10.0464 4.3074 13.3542C3.19149 15.261 2.30346 17.2923 1.66157 19.4063C0.98708 21.7039 0.598736 24.076 0.505327 26.4688C0.443246 27.7257 0.464122 28.9854 0.567824 30.2396C0.567824 30.875 0.744907 31.5104 0.82824 32.1563C0.898332 32.8073 1.02024 33.4517 1.19282 34.0833C2.12951 38.2633 4.03008 42.1665 6.74292 45.4816C9.45575 48.7967 12.9058 51.4319 16.8178 53.1771C19.6491 54.3988 22.6839 55.0806 25.7657 55.1875C28.9487 55.3625 32.1349 54.9058 35.1407 53.8437L36.0573 53.5H36.1823L36.2865 53.5625L49.4219 60.2291L49.0365 60.5625C47.6302 56.2083 46.2761 51.9896 44.9636 47.9375V47.7812L45.0781 47.6667C48.2646 44.4572 50.6301 40.5267 51.974 36.2083C53.1912 32.2604 53.5464 28.0971 53.0156 24C52.5435 20.3589 51.3728 16.8432 49.5677 13.6459C48.0118 10.8994 46.0046 8.43436 43.6302 6.35423C41.6713 4.70779 39.5032 3.32776 37.1823 2.25007C35.4262 1.49266 33.5973 0.916753 31.724 0.531331L29.6407 0.187579L28.1303 0.0729957L27.2136 0.0104983H26.9011C27.0049 -0.00102576 27.1098 -0.00102576 27.2136 0.0104983H28.1407L29.6511 0.0729957L31.7344 0.375071C33.631 0.732279 35.4849 1.28741 37.2657 2.03133C39.6264 3.09621 41.8336 4.47307 43.8282 6.12506C46.2461 8.19596 48.2959 10.6614 49.8906 13.4167C51.7469 16.6483 52.9536 20.2117 53.4427 23.9063C54.0175 28.0666 53.6871 32.3021 52.474 36.3229C51.1213 40.7311 48.7192 44.7452 45.474 48.0208L45.5365 47.75C46.849 51.8021 48.2136 56.0208 49.6302 60.3645L49.8281 61L49.2344 60.6979L36.099 54.0416H36.3282L35.3907 54.3854C32.3271 55.4634 29.0819 55.9306 25.8386 55.7604C22.6904 55.6405 19.5921 54.934 16.7032 53.6771C11.1925 51.317 6.60762 47.2151 3.65115 42C2.29065 39.5915 1.29707 36.9934 0.703237 34.2917C0.540621 33.6437 0.418855 32.9862 0.338657 32.3229C0.255323 31.6667 0.119909 31.0208 0.0886592 30.375C-0.193259 26.6686 0.198481 22.9418 1.24491 19.375C1.90278 17.2319 2.81556 15.1756 3.96365 13.25C5.90752 9.91216 8.53854 7.0255 11.6824 4.78132C14.057 3.10216 16.6934 1.82796 19.4844 1.01049L21.1199 0.593828C21.6012 0.482178 22.088 0.395258 22.5782 0.333412C23.3382 0.192679 24.1077 0.109107 24.8803 0.0834066L26.3074 0.0313361C26.4696 0.00948108 26.6332 -0.000975833 26.7969 7.15241e-05Z" fill="#4CAF4F"/>
<path d="M32.7344 24.2916H30.8073L26.6407 18.4374V14.5937C26.6407 14.5937 23.6615 14.4062 24.0157 19.4374C24.3699 24.4686 24.0157 23.1874 24.0157 23.1874C24.0157 23.1874 17.6928 23.1874 17.172 23.7603C16.6511 24.3332 16.6199 30.4374 16.547 33.8436C16.507 34.6647 16.7426 35.4757 17.2164 36.1475C17.6901 36.8194 18.3747 37.3137 19.1615 37.5519C19.3821 37.613 19.6098 37.6446 19.8386 37.6457C21.4219 37.6457 29.474 36.3644 29.474 36.3644H32.7969L32.7344 24.2916Z" fill="#4CAF4F"/>
<path d="M38.2448 23.2603L37.0573 36.427H33.7657V23.5312L38.2448 23.2603Z" fill="#4CAF4F"/>
</svg>
