<svg width="5" height="5" viewBox="0 0 5 5" fill="none" xmlns="http://www.w3.org/2000/svg">
<path d="M4.99338 2.68299C4.95756 3.17116 4.77924 3.63806 4.48051 4.02582C4.18179 4.41357 3.77581 4.7051 3.31292 4.86425C2.85003 5.0234 2.3506 5.04317 1.87659 4.9211C1.40257 4.79904 0.974806 4.54052 0.646363 4.17759C0.31792 3.81466 0.103252 3.36328 0.028964 2.87946C-0.0453241 2.39565 0.0240351 1.90068 0.228461 1.45593C0.432887 1.01118 0.763389 0.636231 1.17895 0.377573C1.59451 0.118915 2.07684 -0.0120702 2.56615 0.000874665C3.24228 0.0385494 3.8763 0.341287 4.33068 0.843382C4.78507 1.34548 5.02317 2.00647 4.99338 2.68299Z" fill="#4CAF4F"/>
</svg>
