<svg width="5" height="5" viewBox="0 0 5 5" fill="none" xmlns="http://www.w3.org/2000/svg">
<path d="M4.66878 2.49999C4.6911 2.81985 4.64736 3.14085 4.5403 3.44309C4.43324 3.74533 4.26514 4.02231 4.04645 4.2568C3.82776 4.49129 3.56317 4.67827 3.26912 4.80612C2.97507 4.93396 2.65785 4.99995 2.33722 4.99995C2.01658 4.99995 1.69936 4.93396 1.40532 4.80612C1.11127 4.67827 0.846669 4.49129 0.627979 4.2568C0.409289 4.02231 0.24119 3.74533 0.13413 3.44309C0.0270701 3.14085 -0.0166531 2.81985 0.00567334 2.49999C-0.0166531 2.18013 0.0270701 1.85909 0.13413 1.55685C0.24119 1.25462 0.409289 0.977632 0.627979 0.743145C0.846669 0.508658 1.11127 0.321673 1.40532 0.193828C1.69936 0.0659825 2.01658 0 2.33722 0C2.65785 0 2.97507 0.0659825 3.26912 0.193828C3.56317 0.321673 3.82776 0.508658 4.04645 0.743145C4.26514 0.977632 4.43324 1.25462 4.5403 1.55685C4.64736 1.85909 4.6911 2.18013 4.66878 2.49999Z" fill="#4CAF4F"/>
</svg>
