<svg width="57" height="5" viewBox="0 0 57 5" fill="none" xmlns="http://www.w3.org/2000/svg">
<g opacity="0.2">
<path d="M4.25668 2.28715C4.22615 2.7033 4.07414 3.10132 3.81948 3.43187C3.56483 3.76242 3.21874 4.01093 2.82415 4.1466C2.42955 4.28227 2.00381 4.29912 1.59972 4.19507C1.19564 4.09101 0.830988 3.87064 0.551002 3.56125C0.271015 3.25187 0.0880187 2.86707 0.0246908 2.45464C-0.0386372 2.04221 0.020489 1.62026 0.194755 1.24113C0.369021 0.861994 0.650763 0.542364 1.00501 0.321868C1.35926 0.101371 1.77043 -0.0102894 2.18755 0.000745621C2.76393 0.032862 3.30441 0.290935 3.69175 0.718953C4.0791 1.14697 4.28208 1.71044 4.25668 2.28715Z" fill="white"/>
<path d="M10.8468 2.31823C10.8672 2.6099 10.8273 2.9026 10.7297 3.1782C10.6321 3.45379 10.4788 3.70636 10.2794 3.92018C10.08 4.134 9.83868 4.3045 9.57055 4.42107C9.30242 4.53765 9.01317 4.59782 8.7208 4.59782C8.42842 4.59782 8.13917 4.53765 7.87104 4.42107C7.60291 4.3045 7.36164 4.134 7.16223 3.92018C6.96282 3.70636 6.80953 3.45379 6.71191 3.1782C6.61429 2.9026 6.57442 2.6099 6.59478 2.31823C6.57442 2.02656 6.61429 1.73383 6.71191 1.45823C6.80953 1.18264 6.96282 0.930067 7.16223 0.71625C7.36164 0.502433 7.60291 0.331931 7.87104 0.215355C8.13917 0.098779 8.42842 0.0386129 8.7208 0.0386129C9.01317 0.0386129 9.30242 0.098779 9.57055 0.215355C9.83868 0.331931 10.08 0.502433 10.2794 0.71625C10.4788 0.930067 10.6321 1.18264 10.7297 1.45823C10.8273 1.73383 10.8672 2.02656 10.8468 2.31823Z" fill="white"/>
<path d="M17.4473 2.34922C17.4168 2.76537 17.2648 3.16339 17.0101 3.49394C16.7555 3.82449 16.4094 4.07301 16.0148 4.20868C15.6202 4.34435 15.1945 4.3612 14.7904 4.25714C14.3863 4.15308 14.0217 3.93271 13.7417 3.62333C13.4617 3.31394 13.2787 2.92915 13.2154 2.51672C13.152 2.10428 13.2112 1.68234 13.3854 1.3032C13.5597 0.924068 13.8414 0.604438 14.1957 0.383942C14.5499 0.163445 14.9611 0.0517844 15.3782 0.0628195C15.9536 0.0975553 16.4925 0.356388 16.8793 0.783805C17.2661 1.21122 17.47 1.77321 17.4473 2.34922Z" fill="white"/>
<path d="M24.0375 2.38026C24.007 2.79641 23.855 3.19443 23.6003 3.52498C23.3456 3.85553 22.9996 4.10404 22.605 4.23971C22.2104 4.37539 21.7846 4.39223 21.3805 4.28818C20.9765 4.18412 20.6118 3.96375 20.3318 3.65436C20.0518 3.34498 19.8688 2.96022 19.8055 2.54778C19.7422 2.13535 19.8013 1.71337 19.9756 1.33424C20.1499 0.955105 20.4316 0.635475 20.7858 0.414979C21.1401 0.194482 21.5513 0.0828214 21.9684 0.0938564C22.5438 0.128592 23.0827 0.387424 23.4695 0.814842C23.8563 1.24226 24.0602 1.80425 24.0375 2.38026Z" fill="white"/>
<path d="M30.6277 2.40096C30.5991 2.81772 30.4487 3.21691 30.1952 3.5489C29.9416 3.88089 29.5961 4.13105 29.2015 4.26828C28.807 4.40551 28.3808 4.42375 27.976 4.32075C27.5711 4.21775 27.2055 3.99806 26.9245 3.68896C26.6435 3.37985 26.4595 2.99498 26.3955 2.58219C26.3314 2.16939 26.3901 1.74689 26.5642 1.36716C26.7383 0.987428 27.0201 0.667237 27.3747 0.446382C27.7293 0.225528 28.1409 0.113722 28.5585 0.124913C29.1321 0.159637 29.6694 0.417033 30.0559 0.842205C30.4424 1.26738 30.6476 1.8267 30.6277 2.40096Z" fill="white"/>
<path d="M37.2282 2.43197C37.2 2.84658 37.0511 3.24388 36.8 3.57499C36.5489 3.9061 36.2064 4.1566 35.8148 4.29559C35.4231 4.43459 34.9994 4.45606 34.5957 4.35735C34.1921 4.25864 33.826 4.04405 33.5427 3.74002C33.2594 3.43598 33.0712 3.05576 33.0012 2.64613C32.9312 2.2365 32.9825 1.81534 33.1487 1.43448C33.315 1.05362 33.589 0.729653 33.937 0.502494C34.285 0.275335 34.6918 0.154868 35.1073 0.155925C35.6901 0.177498 36.2405 0.429174 36.638 0.855789C37.0355 1.2824 37.2478 1.84918 37.2282 2.43197Z" fill="white"/>
<path d="M43.8183 2.46312C43.8387 2.75478 43.7988 3.04752 43.7012 3.32312C43.6036 3.59871 43.4503 3.85128 43.2509 4.0651C43.0515 4.27892 42.8102 4.44942 42.5421 4.56599C42.2739 4.68257 41.9847 4.7427 41.6923 4.7427C41.3999 4.7427 41.1107 4.68257 40.8425 4.56599C40.5744 4.44942 40.3332 4.27892 40.1337 4.0651C39.9343 3.85128 39.7811 3.59871 39.6834 3.32312C39.5858 3.04752 39.5459 2.75478 39.5663 2.46312C39.5459 2.17145 39.5858 1.87872 39.6834 1.60312C39.7811 1.32752 39.9343 1.07496 40.1337 0.861139C40.3332 0.647322 40.5744 0.476851 40.8425 0.360275C41.1107 0.243699 41.3999 0.183533 41.6923 0.183533C41.9847 0.183533 42.2739 0.243699 42.5421 0.360275C42.8102 0.476851 43.0515 0.647322 43.2509 0.861139C43.4503 1.07496 43.6036 1.32752 43.7012 1.60312C43.7988 1.87872 43.8387 2.17145 43.8183 2.46312Z" fill="white"/>
<path d="M50.4085 2.49402C50.3802 2.90863 50.2314 3.30595 49.9803 3.63706C49.7291 3.96817 49.3867 4.21864 48.9951 4.35764C48.6034 4.49664 48.1797 4.5181 47.776 4.41939C47.3723 4.32069 47.0063 4.10609 46.723 3.80206C46.4397 3.49802 46.2515 3.1178 46.1815 2.70817C46.1115 2.29854 46.1628 1.87738 46.329 1.49652C46.4953 1.11566 46.7693 0.791696 47.1173 0.564536C47.4653 0.337377 47.8721 0.216942 48.2876 0.217999C48.8704 0.239572 49.4208 0.491217 49.8183 0.917831C50.2158 1.34445 50.4281 1.91123 50.4085 2.49402Z" fill="white"/>
<path d="M56.9987 2.52508C56.9701 2.94184 56.8197 3.34103 56.5662 3.67302C56.3126 4.00501 55.9671 4.25516 55.5726 4.39239C55.178 4.52962 54.7518 4.5479 54.347 4.4449C53.9422 4.3419 53.5765 4.12217 53.2955 3.81307C53.0145 3.50397 52.8305 3.1191 52.7665 2.7063C52.7024 2.29351 52.7611 1.871 52.9352 1.49127C53.1093 1.11154 53.3911 0.791353 53.7457 0.570499C54.1003 0.349644 54.512 0.23787 54.9295 0.249061C55.5031 0.283784 56.0404 0.541149 56.4269 0.966321C56.8134 1.39149 57.0186 1.95082 56.9987 2.52508Z" fill="white"/>
</g>
</svg>
