<svg width="14" height="15" viewBox="0 0 14 15" fill="none" xmlns="http://www.w3.org/2000/svg">
<path d="M8.30122 7.70815C9.0228 7.39038 9.63499 6.86745 10.0616 6.2044C10.4883 5.54136 10.7105 4.76748 10.7007 3.9791C10.7276 3.46659 10.6498 2.95398 10.4722 2.47248C10.2946 1.99099 10.0209 1.55069 9.6676 1.17841C9.31434 0.806131 8.88899 0.509668 8.41746 0.307074C7.94593 0.104481 7.43809 0 6.92488 0C6.41167 0 5.90383 0.104481 5.4323 0.307074C4.96078 0.509668 4.53542 0.806131 4.18217 1.17841C3.82891 1.55069 3.55514 1.99099 3.37753 2.47248C3.19993 2.95398 3.12222 3.46659 3.14911 3.9791C3.13328 4.77538 3.35372 5.5585 3.78262 6.22959C4.21153 6.90068 4.82964 7.42964 5.55894 7.7497C-0.257964 8.62224 0.0017452 14.9377 0.0017452 14.9377L13.7546 15.0001C13.7546 15.0001 14.0766 8.5703 8.30122 7.70815Z" fill="#4CAF4F"/>
</svg>
