<svg width="44" height="30" viewBox="0 0 44 30" fill="none" xmlns="http://www.w3.org/2000/svg">
<path d="M23.4828 16.4176L16.7441 27.9586L10.0056 16.4176H23.4828ZM25.288 15.3861H8.19302L16.7441 30L25.288 15.3861Z" fill="white"/>
<path d="M35.1987 2.06296L41.9373 13.604H28.4601L35.1987 2.06296ZM35.1987 0L26.6475 14.6139H43.7498L35.1987 0Z" fill="white"/>
<path d="M0 0L7.16985 12.926L15.0047 0.324575L0 0Z" fill="#4CAF4F"/>
<path d="M16.7444 1.13201L24.265 13.9859H9.20909L16.7444 1.13201Z" fill="#4CAF4F"/>
<path d="M26.2017 16.7926L33.7297 29.9999H18.3157L25.9678 16.7926H26.2017Z" fill="#4CAF4F"/>
<path d="M27.8315 15.9918L35.1987 28.9971L42.6681 15.9918H27.8315Z" fill="#4CAF4F"/>
</svg>
