<svg width="86" height="148" viewBox="0 0 86 148" fill="none" xmlns="http://www.w3.org/2000/svg">
<path d="M19.0504 110.272C3.05861 99.1035 -0.564114 78.3712 0.0672754 59.7297C0.170782 56.6245 -0.170777 53.333 1.30937 50.6108C2.78951 47.8885 6.24662 46.0151 9.03094 47.3193C11.3391 48.4061 12.3432 51.0972 13.637 53.3226C15.3634 56.2867 17.8932 58.7017 20.9342 60.2886C22.9112 61.3237 25.3643 61.9447 27.3205 60.8683C30.0117 59.3881 30.3222 55.6929 30.3015 52.5877C30.3015 46.8121 30.267 41.0433 30.198 35.2815C30.012 32.1875 30.3266 29.0838 31.1296 26.0901C32.0922 23.1505 34.2348 20.4283 37.164 19.6002C40.0932 18.7722 43.747 20.48 44.4094 23.5024C44.5235 24.7825 44.5546 26.0687 44.5026 27.3529C44.5854 28.6467 45.1858 30.0647 46.3968 30.4581C47.6078 30.8514 48.8706 29.9509 49.8022 29.04C52.9902 25.9348 55.1638 21.8877 57.1821 17.8924C59.2005 13.897 61.1775 9.78779 64.0757 6.38243C66.9739 2.97707 70.9796 0.275553 75.4614 0.0167872C79.9432 -0.241979 84.6114 2.51129 85.7292 6.85857C86.8471 11.2058 84.3112 15.6463 81.589 19.1758C77.4812 24.415 72.6389 29.0341 67.2119 32.8904C66.1526 33.4689 65.3071 34.3724 64.8002 35.4678C64.1274 37.5379 66.0837 39.608 68.1228 40.2601C70.431 41.0261 72.9358 40.788 75.3682 41.0778C77.8006 41.3676 80.3883 42.4234 81.3095 44.7005C82.5723 47.8678 79.9225 51.18 77.3245 53.3537C72.1078 57.701 66.1842 61.1214 59.8112 63.4663C57.5341 64.2943 55.1431 65.0292 53.3007 66.6232C51.4582 68.2172 50.3611 71.0015 51.4686 73.1855C52.5761 75.3695 55.4225 76.063 57.8136 75.6179C60.2045 75.1729 62.3264 73.8894 64.6036 73.0303C68.8577 71.4259 74.3435 71.7157 77.0243 75.3902C77.8549 76.656 78.3806 78.0971 78.5602 79.6003C78.7398 81.1035 78.5684 82.6279 78.0594 84.0537C77.0235 86.8912 75.4291 89.4922 73.3706 91.7028C66.5913 99.8025 57.783 105.957 47.8459 109.537C37.9817 112.953 28.8421 113.884 19.04 110.293" fill="#4CAF4F"/>
<path d="M81.175 2.5734C81.175 2.5734 81.0818 2.67691 80.8748 2.86322L79.9536 3.68092C79.1462 4.40546 77.9559 5.46124 76.4551 6.85857C72.1998 10.8096 68.2484 15.0758 64.6346 19.6209C62.3264 22.4881 59.9354 25.7381 57.3892 29.2677C54.8429 32.7973 52.2139 36.6063 49.6055 40.6534C46.8246 44.9212 44.278 49.3371 41.977 53.8816C40.7764 56.2519 39.7206 58.7257 38.6338 61.2512L35.4251 68.9624C31.1956 78.6755 27.5119 88.6173 24.3913 98.7413C21.8777 107.025 20.145 115.525 19.216 124.131C18.614 129.939 18.517 135.789 18.9262 141.614C19.0918 143.684 19.247 145.267 19.392 146.344C19.4541 146.861 19.4954 147.275 19.5369 147.576V148C19.4923 147.865 19.4611 147.727 19.4437 147.586C19.3919 147.286 19.3298 146.882 19.247 146.365C19.0607 145.33 18.8641 143.694 18.6778 141.624C18.1784 135.788 18.213 129.919 18.7813 124.09C19.6526 115.447 21.3475 106.907 23.8427 98.586C26.9371 88.4336 30.6107 78.4668 34.8455 68.7347L38.137 61.0546C39.2238 58.5394 40.2899 56.0448 41.5009 53.6642C43.8179 49.106 46.3854 44.6795 49.1915 40.405C51.8412 36.2648 54.5117 32.5178 57.0269 29.0193C59.5421 25.5208 61.9745 22.25 64.2724 19.3932C67.9229 14.8601 71.9274 10.6237 76.2481 6.72401C77.78 5.34737 79.0013 4.31231 79.8294 3.61881L80.792 2.84252C80.91 2.73978 81.0383 2.64959 81.175 2.5734Z" fill="#263238"/>
<path d="M41.6355 53.6435C41.4895 53.2171 41.3889 52.7765 41.3353 52.3289C41.1697 51.4698 40.9834 50.2588 40.766 48.6855C40.321 45.5803 39.8655 41.3262 39.3791 36.6166C38.8926 31.9071 38.344 27.6426 37.8886 24.5685C37.6505 23.0366 37.4435 21.8049 37.2986 20.9458C37.1855 20.506 37.1264 20.0542 37.1226 19.6002C37.3008 20.0148 37.4294 20.4491 37.5056 20.894C37.7333 21.7428 37.9921 22.9641 38.2819 24.5064C38.8719 27.6116 39.4515 31.8346 39.938 36.5545C40.4244 41.2744 40.8385 45.4147 41.1594 48.6337C41.3146 50.0828 41.4492 51.3146 41.5527 52.2979C41.6331 52.7416 41.6609 53.1932 41.6355 53.6435Z" fill="#263238"/>
<path d="M81.4648 46.2117C80.9611 46.3213 80.4482 46.3837 79.9329 46.398C78.8978 46.4911 77.428 46.6154 75.6063 46.8224C71.9629 47.2157 66.9532 47.9402 61.457 48.9753C55.9608 50.0104 51.0235 51.18 47.4733 52.0805C45.7033 52.5359 44.2749 52.95 43.333 53.2294C42.8301 53.4081 42.3097 53.533 41.7804 53.602C42.2587 53.3615 42.7575 53.1641 43.2709 53.0121C44.2438 52.6705 45.6515 52.1943 47.4111 51.6872C50.9407 50.6521 55.878 49.4204 61.3949 48.3646C66.0682 47.471 70.7838 46.8146 75.5235 46.398C77.3556 46.2427 78.8357 46.1806 79.8708 46.1599C80.4025 46.1238 80.9365 46.1411 81.4648 46.2117Z" fill="#263238"/>
<path d="M24.3499 97.8616C24.2396 97.7117 24.1491 97.5482 24.0808 97.3751L23.3977 95.9363C22.8077 94.6839 22.0107 92.8312 21.0584 90.5644C19.1332 86.0101 16.6801 79.6341 14.0717 72.5542C11.4634 65.4744 9.062 59.0984 7.24028 54.4924C6.35013 52.2566 5.61526 50.4246 5.06667 49.0583L4.48701 47.5781C4.40667 47.4074 4.35094 47.2262 4.32143 47.0399C4.43178 47.1897 4.52222 47.3533 4.59052 47.5264L5.27367 48.9651C5.8533 50.2176 6.66066 52.0703 7.61292 54.3371C9.53815 58.8914 11.9912 65.2674 14.5996 72.3472C17.208 79.4271 19.6093 85.8031 21.431 90.4091C22.3212 92.6448 23.0561 94.4769 23.5943 95.8432C23.8324 96.4332 24.0291 96.8783 24.1843 97.3234C24.2647 97.494 24.3204 97.6752 24.3499 97.8616Z" fill="#263238"/>
<path d="M77.221 80.814C77.0553 80.9091 76.8778 80.9822 76.6931 81.0313L75.1612 81.5488L69.4994 83.3809C64.7174 84.9335 58.1137 87.1486 50.8683 89.5913C43.6228 92.0341 36.988 94.2077 32.175 95.6568C29.7736 96.3917 27.8174 96.9506 26.4614 97.3233L24.8985 97.7269C24.7167 97.7846 24.5294 97.8228 24.3396 97.8408C24.5053 97.7457 24.6827 97.6726 24.8674 97.6234L26.3993 97.1059L32.0611 95.2738C36.8431 93.7212 43.4468 91.5062 50.6923 89.0634C57.9377 86.6207 64.5621 84.447 69.3752 82.9979C71.7869 82.263 73.7328 81.7041 75.0991 81.3315L76.6621 80.9278C76.8438 80.8701 77.0312 80.8319 77.221 80.814Z" fill="#263238"/>
</svg>
